<svg width="62" height="27" viewBox="0 0 62 27" fill="none" xmlns="http://www.w3.org/2000/svg">
<path d="M1.05682 3.27273H2.31818L5.28409 10.517H5.38636L8.35227 3.27273H9.61364V12H8.625V5.36932H8.53977L5.8125 12H4.85795L2.13068 5.36932H2.04545V12H1.05682V3.27273ZM19.0962 7.63636C19.0962 8.55682 18.93 9.35227 18.5977 10.0227C18.2653 10.6932 17.8093 11.2102 17.2298 11.5739C16.6502 11.9375 15.9883 12.1193 15.244 12.1193C14.4996 12.1193 13.8377 11.9375 13.2582 11.5739C12.6786 11.2102 12.2227 10.6932 11.8903 10.0227C11.5579 9.35227 11.3917 8.55682 11.3917 7.63636C11.3917 6.71591 11.5579 5.92045 11.8903 5.25C12.2227 4.57955 12.6786 4.0625 13.2582 3.69886C13.8377 3.33523 14.4996 3.15341 15.244 3.15341C15.9883 3.15341 16.6502 3.33523 17.2298 3.69886C17.8093 4.0625 18.2653 4.57955 18.5977 5.25C18.93 5.92045 19.0962 6.71591 19.0962 7.63636ZM18.0735 7.63636C18.0735 6.88068 17.9471 6.2429 17.6942 5.72301C17.4442 5.20312 17.1048 4.80966 16.6758 4.54261C16.2496 4.27557 15.7724 4.14205 15.244 4.14205C14.7156 4.14205 14.2369 4.27557 13.8079 4.54261C13.3817 4.80966 13.0423 5.20312 12.7894 5.72301C12.5394 6.2429 12.4144 6.88068 12.4144 7.63636C12.4144 8.39205 12.5394 9.02983 12.7894 9.54972C13.0423 10.0696 13.3817 10.4631 13.8079 10.7301C14.2369 10.9972 14.7156 11.1307 15.244 11.1307C15.7724 11.1307 16.2496 10.9972 16.6758 10.7301C17.1048 10.4631 17.4442 10.0696 17.6942 9.54972C17.9471 9.02983 18.0735 8.39205 18.0735 7.63636ZM22.4585 12L20.0721 3.27273H21.146L22.9698 10.3807H23.055L24.913 3.27273H26.1062L27.9641 10.3807H28.0494L29.8732 3.27273H30.9471L28.5607 12H27.4698L25.5437 5.04545H25.4755L23.5494 12H22.4585ZM31.9421 12H30.8342L34.0387 3.27273H35.1296L38.3342 12H37.2262L34.6183 4.65341H34.5501L31.9421 12ZM32.3512 8.59091H36.8171V9.52841H32.3512V8.59091Z" fill="white"/>
<path d="M19.75 24H17.0568V15.2727H19.8693C20.7159 15.2727 21.4403 15.4474 22.0426 15.7969C22.6449 16.1435 23.1065 16.642 23.4276 17.2926C23.7486 17.9403 23.9091 18.7159 23.9091 19.6193C23.9091 20.5284 23.7472 21.3111 23.4233 21.9673C23.0994 22.6207 22.6278 23.1236 22.0085 23.4759C21.3892 23.8253 20.6364 24 19.75 24ZM18.1136 23.0625H19.6818C20.4034 23.0625 21.0014 22.9233 21.4759 22.6449C21.9503 22.3665 22.304 21.9702 22.5369 21.456C22.7699 20.9418 22.8864 20.3295 22.8864 19.6193C22.8864 18.9148 22.7713 18.3082 22.5412 17.7997C22.3111 17.2884 21.9673 16.8963 21.5099 16.6236C21.0526 16.348 20.483 16.2102 19.8011 16.2102H18.1136V23.0625ZM26.7386 15.2727V24H25.6818V15.2727H26.7386ZM34.8235 18C34.7298 17.7131 34.6062 17.456 34.4528 17.2287C34.3022 16.9986 34.1218 16.8026 33.9116 16.6406C33.7042 16.4787 33.4684 16.3551 33.2042 16.2699C32.94 16.1847 32.6502 16.142 32.3349 16.142C31.8178 16.142 31.3477 16.2756 30.9244 16.5426C30.5011 16.8097 30.1644 17.2031 29.9144 17.723C29.6644 18.2429 29.5394 18.8807 29.5394 19.6364C29.5394 20.392 29.6658 21.0298 29.9187 21.5497C30.1715 22.0696 30.5138 22.4631 30.9457 22.7301C31.3775 22.9972 31.8633 23.1307 32.4031 23.1307C32.9031 23.1307 33.3434 23.0241 33.7241 22.8111C34.1076 22.5952 34.4059 22.2912 34.619 21.8991C34.8349 21.5043 34.9428 21.0398 34.9428 20.5057L35.2667 20.5739H32.6417V19.6364H35.9656V20.5739C35.9656 21.2926 35.8121 21.9176 35.5053 22.4489C35.2013 22.9801 34.7809 23.392 34.244 23.6847C33.7099 23.9744 33.0962 24.1193 32.4031 24.1193C31.6303 24.1193 30.9513 23.9375 30.3661 23.5739C29.7837 23.2102 29.3292 22.6932 29.0025 22.0227C28.6786 21.3523 28.5167 20.5568 28.5167 19.6364C28.5167 18.946 28.609 18.3253 28.7937 17.7741C28.9812 17.2202 29.2454 16.7486 29.5863 16.3594C29.9272 15.9702 30.3306 15.6719 30.7965 15.4645C31.2624 15.2571 31.7752 15.1534 32.3349 15.1534C32.7951 15.1534 33.2241 15.223 33.6218 15.3622C34.0224 15.4986 34.3789 15.6932 34.6914 15.946C35.0067 16.196 35.2695 16.4957 35.4798 16.8452C35.69 17.1918 35.8349 17.5767 35.9144 18H34.8235ZM38.8324 15.2727V24H37.7756V15.2727H38.8324ZM40.4741 16.2102V15.2727H47.0195V16.2102H44.2752V24H43.2184V16.2102H40.4741ZM47.989 24H46.881L50.0856 15.2727H51.1765L54.381 24H53.2731L50.6651 16.6534H50.5969L47.989 24ZM48.3981 20.5909H52.864V21.5284H48.3981V20.5909ZM55.7404 24V15.2727H56.7972V23.0625H60.854V24H55.7404Z" fill="white"/>
</svg>
